<svg viewBox="0 0 100 100" xmlns="http://www.w3.org/2000/svg">
  <rect width="100" height="100" rx="18" fill="#0E3D2E"/>
  <defs>
    <linearGradient id="g" x1="0" y1="0" x2="1" y2="1">
      <stop offset="0%" stop-color="#EAD292"/>
      <stop offset="100%" stop-color="#C9A961"/>
    </linearGradient>
  </defs>
  <g fill="url(#g)">
    <path d="M 22 18 L 32 18 L 32 82 L 22 82 Z"/>
    <path d="M 32 18 L 42 18 L 78 82 L 68 82 Z"/>
    <path d="M 68 18 L 78 18 L 78 82 L 68 82 Z"/>
  </g>
  <g fill="#0E3D2E" opacity="0.85">
    <rect x="25" y="32" width="4" height="6" rx="0.5"/>
    <rect x="25" y="42" width="4" height="6" rx="0.5"/>
    <rect x="25" y="52" width="4" height="6" rx="0.5"/>
    <rect x="25" y="62" width="4" height="6" rx="0.5"/>
    <rect x="69.5" y="28" width="1.6" height="44" rx="0.5"/>
    <rect x="73" y="28" width="1.6" height="44" rx="0.5"/>
    <rect x="76.4" y="28" width="1.6" height="44" rx="0.5"/>
  </g>
</svg>
